<svg width="17" height="22" viewBox="0 0 17 22" fill="none" xmlns="http://www.w3.org/2000/svg">
<mask id="path-1-inside-1_125_20" fill="white">
<path fill-rule="evenodd" clip-rule="evenodd" d="M0.162866 0.558286L16.3255 14.3206L8.66278 15.2806L4 21.4367L0.162821 0.558377L0.162675 0.558124L0.162793 0.558224L0.162776 0.558131L0.162866 0.558286Z"/>
</mask>
<path fill-rule="evenodd" clip-rule="evenodd" d="M0.162866 0.558286L16.3255 14.3206L8.66278 15.2806L4 21.4367L0.162821 0.558377L0.162675 0.558124L0.162793 0.558224L0.162776 0.558131L0.162866 0.558286Z" fill="#181818"/>
<path d="M16.3255 14.3206L16.4498 15.3128L18.7019 15.0306L16.9738 13.5592L16.3255 14.3206ZM0.162866 0.558286L-0.70316 1.05829L-0.616858 1.20777L-0.485441 1.31967L0.162866 0.558286ZM8.66278 15.2806L8.53846 14.2883L8.12016 14.3407L7.86562 14.6768L8.66278 15.2806ZM4 21.4367L3.01647 21.6175L3.42675 23.8498L4.79715 22.0405L4 21.4367ZM0.162821 0.558377L1.14635 0.377617L1.11515 0.207856L1.02885 0.0583765L0.162821 0.558377ZM0.162675 0.558124L0.810855 -0.203363L-0.70335 1.05812L0.162675 0.558124ZM0.162793 0.558224L-0.485387 1.31971L1.65513 3.14172L1.14627 0.377199L0.162793 0.558224ZM0.162776 0.558131L1.0288 0.0581303L-0.820702 0.739156L0.162776 0.558131ZM16.9738 13.5592L0.811172 -0.203093L-0.485441 1.31967L15.6771 15.0819L16.9738 13.5592ZM8.78709 16.2728L16.4498 15.3128L16.2011 13.3283L8.53846 14.2883L8.78709 16.2728ZM7.86562 14.6768L3.20285 20.8329L4.79715 22.0405L9.45993 15.8843L7.86562 14.6768ZM4.98353 21.256L1.14635 0.377617L-0.820706 0.739137L3.01647 21.6175L4.98353 21.256ZM-0.70335 1.05812L-0.703204 1.05838L1.02885 0.0583765L1.0287 0.0581236L-0.70335 1.05812ZM0.810973 -0.203263L0.810855 -0.203363L-0.485505 1.31961L-0.485387 1.31971L0.810973 -0.203263ZM1.14627 0.377199L1.14625 0.377105L-0.820702 0.739156L-0.820685 0.73925L1.14627 0.377199ZM-0.703249 1.05813L-0.70316 1.05829L1.02889 0.0582859L1.0288 0.0581303L-0.703249 1.05813Z" fill="#C8C8D0" mask="url(#path-1-inside-1_125_20)"/>
</svg>
